<?xml version="1.0" standalone="no"?>
<!DOCTYPE svg PUBLIC "-//W3C//DTD SVG 20010904//EN"
 "http://www.w3.org/TR/2001/REC-SVG-20010904/DTD/svg10.dtd">
<svg version="1.0" xmlns="http://www.w3.org/2000/svg"
 width="954.000000pt" height="954.000000pt" viewBox="0 0 954.000000 954.000000"
 preserveAspectRatio="xMidYMid meet">
<metadata>
Created by potrace 1.11, written by Peter Selinger 2001-2013
</metadata>
<g transform="translate(0.000000,954.000000) scale(0.100000,-0.100000)"
fill="#000000" stroke="none">
<path d="M4355 9520 c11 -5 28 -11 39 -14 18 -6 18 -7 -3 -29 -59 -61 -101
-110 -101 -118 0 -5 -7 -9 -15 -9 -8 0 -15 -7 -15 -15 0 -16 -57 -62 -71 -57
-5 1 -9 -4 -9 -10 0 -7 -8 2 -17 21 l-17 34 -9 -26 c-9 -29 -35 -35 -55 -15
-9 9 -12 9 -12 0 0 -7 -11 -22 -25 -34 -22 -19 -37 -22 -93 -21 -38 1 -81 9
-98 18 -40 21 -46 19 -68 -14 -15 -22 -26 -28 -47 -26 -20 3 -32 -3 -48 -25
-11 -16 -21 -34 -21 -40 0 -5 -7 -10 -15 -10 -8 0 -15 -7 -15 -15 0 -8 -9 -19
-19 -25 -11 -5 -22 -19 -26 -29 -3 -11 -21 -29 -40 -40 -19 -11 -35 -25 -35
-31 0 -33 -103 -68 -180 -60 -14 1 -70 3 -125 4 -55 2 -111 7 -125 11 -14 5
-38 10 -55 11 -16 0 -43 6 -58 13 -36 14 -57 14 -37 0 12 -8 9 -9 -13 -5 -20
5 -29 2 -32 -9 -3 -8 -7 -22 -10 -30 -4 -13 -9 -11 -27 7 -12 12 -23 27 -24
33 -1 7 -13 23 -26 38 l-25 27 -11 -39 c-7 -21 -12 -46 -12 -54 0 -9 -11 -24
-25 -33 -13 -9 -27 -23 -29 -32 -3 -10 -16 -28 -28 -42 -35 -38 -58 -77 -58
-98 0 -31 -27 -88 -50 -103 -11 -8 -21 -26 -22 -41 -1 -16 -6 -28 -10 -28 -4
0 -8 -6 -8 -14 0 -27 -20 -27 -32 -2 -16 37 -32 32 -25 -8 4 -25 1 -39 -13
-51 -14 -13 -19 -13 -23 -3 -3 7 -6 2 -7 -12 -1 -14 -4 -19 -7 -13 -3 10 -12
9 -34 -3 -26 -13 -42 -13 -105 -4 -40 6 -91 10 -111 9 -67 -4 -93 0 -93 16 0
8 -5 15 -11 15 -6 0 -17 -7 -25 -15 -9 -8 -24 -15 -35 -15 -11 0 -22 -7 -25
-15 -4 -8 -15 -15 -25 -15 -10 0 -19 -4 -19 -10 0 -5 -13 -10 -29 -10 -20 0
-34 -8 -45 -25 -9 -14 -21 -23 -25 -20 -5 2 -14 -8 -21 -24 -16 -39 -60 -99
-60 -81 0 7 -2 11 -4 9 -2 -2 -1 -25 3 -51 5 -28 3 -54 -3 -65 -5 -10 -11 -34
-13 -53 -6 -75 -10 -101 -17 -108 -23 -22 -73 -202 -62 -221 6 -9 -12 -72 -23
-81 -14 -12 -30 -50 -37 -86 -3 -22 -11 -47 -16 -58 -7 -13 -6 -21 3 -27 11
-7 10 -9 -3 -9 -35 0 -68 -23 -68 -46 0 -16 -4 -22 -15 -18 -8 4 -25 -6 -39
-23 -17 -19 -26 -23 -26 -13 -1 9 -5 6 -10 -8 -5 -12 -17 -25 -27 -29 -24 -9
-63 -53 -63 -69 0 -8 -8 -14 -18 -14 -17 0 -33 -14 -62 -56 -8 -12 -19 -22
-25 -22 -5 0 -17 -29 -26 -64 -9 -36 -18 -57 -21 -48 -4 10 -7 6 -8 -10 -1
-14 -4 -41 -6 -60 -8 -53 -7 -71 6 -119 7 -29 14 -40 19 -32 5 8 11 -6 14 -36
17 -133 20 -144 43 -159 19 -13 64 -87 64 -106 0 -5 -122 -21 -172 -22 -28 -1
-41 -16 -14 -16 7 0 26 -17 42 -37 38 -50 60 -69 117 -98 36 -19 47 -31 47
-49 0 -13 -8 -27 -17 -31 -16 -6 -15 -8 7 -17 14 -6 20 -12 13 -15 -6 -2 -9
-16 -6 -34 5 -35 -17 -74 -46 -84 -21 -6 -46 -58 -36 -74 3 -6 -2 -11 -13 -11
-13 0 -23 -12 -32 -40 -11 -34 -17 -40 -41 -40 -31 0 -27 15 -48 -182 -14
-124 -14 -134 2 -150 13 -13 38 -62 51 -102 4 -10 12 -16 20 -13 10 4 16 -5
20 -29 4 -18 16 -38 26 -44 11 -6 20 -15 20 -21 0 -6 9 -18 19 -27 11 -10 21
-28 23 -42 3 -23 -1 -25 -47 -31 -27 -3 -40 -7 -27 -7 19 -2 23 -7 20 -29 -2
-21 -11 -31 -33 -38 -47 -16 -55 -24 -55 -56 0 -24 4 -29 25 -29 14 0 25 -4
25 -9 0 -5 2 -16 5 -23 3 -8 -7 -28 -22 -45 -48 -51 -59 -69 -55 -81 2 -7 -1
-12 -7 -12 -14 0 -14 -25 0 -49 10 -14 7 -26 -11 -60 -13 -23 -31 -41 -41 -41
-10 0 -22 -13 -29 -32 -20 -54 -33 -78 -42 -78 -4 0 -8 -9 -8 -20 0 -11 -4
-20 -10 -20 -5 0 -10 -6 -10 -14 0 -8 -8 -21 -18 -28 -11 -7 -36 -44 -57 -83
-20 -38 -42 -76 -48 -83 -6 -7 -11 -40 -12 -73 -1 -48 1 -59 14 -59 9 0 26
-15 38 -33 20 -29 87 -61 129 -62 11 0 84 -35 94 -45 3 -3 14 -7 25 -8 11 -2
22 -8 23 -13 2 -5 10 -9 17 -9 16 0 73 -29 93 -47 7 -7 18 -13 23 -13 15 0 39
-26 39 -43 0 -14 40 -37 64 -37 19 0 79 -67 71 -79 -8 -13 61 -45 81 -37 7 3
26 -1 41 -8 15 -8 58 -17 96 -21 37 -4 65 -10 63 -13 -2 -4 53 -9 122 -10 70
-2 130 -6 134 -8 5 -3 8 -17 8 -32 0 -38 26 -72 55 -72 13 0 27 -5 30 -10 3
-5 22 -10 41 -10 l34 0 0 73 c1 132 39 335 70 372 16 19 69 19 189 -1 114 -20
128 -26 147 -67 14 -32 14 -32 9 18 -4 28 -15 97 -25 155 -69 385 -79 462 -89
691 -10 216 1 394 45 721 26 195 54 311 107 438 34 83 102 204 148 261 32 41
31 44 -24 54 -20 4 -37 11 -37 15 0 10 139 130 151 130 19 0 8 21 -16 32 -29
13 -28 31 1 37 10 2 43 12 71 23 42 15 52 23 50 40 -2 17 14 29 78 62 44 23
81 49 83 57 2 10 -11 21 -38 32 -22 8 -40 20 -40 25 0 5 60 28 133 52 157 50
396 146 417 166 13 13 13 18 -2 42 -30 48 -52 92 -47 96 5 5 115 -24 162 -43
41 -16 48 -14 41 14 -7 30 -1 31 62 6 112 -42 204 -62 204 -42 0 6 -13 40 -30
74 -35 74 -37 87 -12 87 10 0 117 -21 238 -46 120 -25 236 -48 257 -51 l37 -6
0 57 c0 64 12 71 50 31 28 -30 40 -24 40 21 0 19 4 34 10 34 5 0 24 -18 41
-40 18 -22 38 -40 45 -40 12 0 40 29 124 130 25 30 71 81 102 115 47 49 59 57
68 45 5 -8 10 -72 10 -142 0 -128 4 -158 22 -158 6 0 36 16 68 35 32 19 63 35
69 35 8 0 10 -11 5 -35 -5 -29 -3 -35 11 -35 10 0 33 10 52 21 l34 21 6 -21
c3 -11 7 -21 10 -21 4 0 235 125 265 144 29 18 32 -2 13 -75 -14 -55 -15 -73
-6 -82 8 -8 48 -11 124 -9 130 3 339 -19 362 -38 14 -12 13 -15 -6 -33 -11
-10 -17 -23 -12 -27 4 -4 52 -10 105 -12 54 -2 100 -7 103 -10 7 -7 -25 -74
-64 -133 -47 -71 -55 -93 -42 -109 7 -8 64 -31 128 -51 138 -44 326 -116 319
-122 -2 -3 -19 -12 -36 -22 -41 -22 -42 -32 -5 -50 69 -33 107 -62 100 -79 -4
-11 16 -37 70 -88 41 -39 75 -76 75 -82 0 -6 -9 -14 -20 -17 -26 -8 -25 -27 2
-51 40 -36 78 -105 68 -124 -7 -13 -4 -35 9 -73 23 -65 54 -213 49 -229 -3 -7
-10 -5 -20 6 -24 23 -31 20 -23 -11 18 -75 65 -383 74 -498 33 -380 32 -506
-4 -750 -14 -97 -80 -435 -120 -615 -8 -35 -13 -65 -12 -66 3 -2 195 15 296
26 77 9 97 8 108 -3 21 -21 33 -125 33 -295 0 -84 4 -161 9 -170 8 -15 19 -17
73 -11 106 11 189 29 228 49 21 11 56 22 79 26 22 4 38 10 35 15 -3 5 3 9 13
9 27 1 63 84 63 144 0 50 24 86 58 86 15 0 84 47 90 62 2 4 15 8 28 8 13 0 24
3 24 8 0 4 21 18 48 31 26 13 54 28 62 33 8 5 23 11 33 14 9 4 17 9 17 13 0 4
15 14 33 23 26 13 39 29 57 72 12 31 26 56 30 56 12 0 -10 113 -25 131 -8 8
-15 21 -15 28 0 7 -6 19 -14 27 -8 8 -18 34 -21 59 -4 24 -13 50 -21 56 -8 6
-14 16 -14 21 0 5 -16 24 -36 41 -56 50 -104 98 -104 106 0 8 57 35 96 46 11
3 26 18 33 33 7 15 19 40 27 55 17 35 17 51 2 93 -15 42 -4 55 74 94 32 16 70
43 84 60 14 16 31 30 37 30 7 0 27 14 46 30 18 17 37 30 41 30 3 0 24 16 46
35 21 19 44 35 49 35 13 0 105 89 105 102 0 4 5 8 10 8 6 0 30 20 55 44 41 40
45 47 45 92 0 48 21 84 50 84 6 0 9 3 8 8 -3 15 21 60 37 66 9 3 13 10 10 16
-3 5 -2 10 3 10 14 0 22 105 11 144 -5 20 -22 44 -39 56 -16 11 -31 29 -35 39
-3 10 -18 24 -33 32 -15 7 -52 38 -83 69 -30 30 -75 68 -100 85 -24 16 -69 51
-99 78 -50 43 -161 107 -188 107 -45 0 -82 50 -47 64 26 9 164 101 164 108 1
4 12 18 26 32 23 23 24 26 9 55 -14 28 -14 32 7 61 13 16 26 30 30 30 3 0 32
25 64 55 31 30 62 52 67 48 6 -3 8 -2 5 4 -4 5 2 19 13 31 11 11 22 32 26 47
4 15 17 30 32 36 13 5 22 12 20 15 -3 3 -50 10 -104 15 -130 13 -160 21 -156
42 2 10 -1 17 -5 17 -4 0 -8 36 -8 80 0 45 -5 84 -10 88 -18 12 -36 62 -23 62
6 0 -3 14 -21 30 -17 17 -31 39 -31 50 0 15 -7 20 -25 20 -40 0 -80 26 -98 62
-13 25 -17 28 -18 13 0 -16 -3 -15 -10 7 -6 15 -19 30 -29 33 -11 3 -22 15
-25 26 -4 10 -15 19 -27 19 -26 0 -76 29 -84 49 -3 9 -7 28 -9 42 -4 25 -1 27
53 37 l57 9 -71 2 -71 1 -7 40 c-6 39 -35 68 -56 55 -6 -4 -10 8 -10 27 0 36
-48 138 -65 138 -5 0 -20 18 -33 40 -12 22 -29 40 -38 40 -8 0 -29 7 -47 17
-28 14 -29 17 -13 23 13 4 -1 12 -48 25 -36 10 -66 24 -66 30 0 7 6 32 13 56
7 24 10 55 7 69 -8 31 -27 30 -114 -5 -86 -34 -98 -33 -94 8 3 30 1 32 -29 35
-42 4 -57 32 -54 97 1 33 -1 45 -8 36 -6 -9 -7 3 -4 34 4 29 2 50 -5 54 -16
10 -45 155 -32 159 14 5 12 58 -5 122 -8 30 -15 69 -15 85 0 18 -8 38 -20 48
-16 14 -20 29 -20 82 0 48 -3 65 -14 65 -7 0 -16 15 -20 33 -8 45 -49 127 -63
127 -6 0 -17 24 -23 54 -10 51 -13 54 -53 66 -23 8 -46 13 -51 11 -5 -1 -13 4
-17 11 -7 10 -13 10 -28 1 -21 -13 -61 -7 -61 10 0 7 -4 7 -12 -1 -7 -7 -21
-12 -33 -12 -11 0 -27 -9 -35 -20 -16 -22 -50 -27 -50 -7 -1 7 -6 6 -14 -5 -7
-10 -33 -20 -57 -24 -24 -4 -48 -13 -54 -20 -5 -6 -23 -14 -40 -17 -16 -3 -52
-11 -80 -17 -27 -7 -63 -14 -80 -16 -16 -2 -40 -6 -51 -9 -16 -4 -23 1 -28 17
-3 14 0 26 9 31 17 9 20 27 6 27 -6 0 -22 -12 -38 -26 -26 -24 -28 -24 -40 -8
-7 10 -13 36 -14 58 0 32 -2 36 -9 21 -18 -47 -66 -65 -88 -34 -7 11 -18 17
-23 14 -5 -4 -9 -3 -9 2 -1 20 -68 83 -88 83 -13 0 -37 7 -54 16 -26 13 -35
14 -55 3 -19 -10 -40 -11 -110 0 -78 11 -142 30 -104 31 19 0 -6 30 -25 30
-15 0 -44 49 -44 74 0 8 -4 17 -9 21 -6 3 -8 -10 -5 -34 5 -39 -14 -71 -25
-40 -2 8 -19 29 -38 48 -18 18 -32 35 -31 36 2 2 19 8 38 13 24 7 -158 10
-595 10 -354 1 -621 -3 -610 -8z m-198 -252 c-3 -8 -6 -5 -6 6 -1 11 2 17 5
13 3 -3 4 -12 1 -19z"/>
<path d="M5610 9519 c0 -5 5 -7 10 -4 6 3 10 8 10 11 0 2 -4 4 -10 4 -5 0 -10
-5 -10 -11z"/>
<path d="M4030 9323 c0 -12 5 -25 11 -28 19 -12 22 3 5 27 l-16 22 0 -21z"/>
<path d="M3467 9016 c-16 -13 -16 -14 -1 -20 20 -8 27 -3 22 18 -2 12 -6 13
-21 2z"/>
<path d="M2860 8990 c0 -5 5 -10 10 -10 6 0 10 5 10 10 0 6 -4 10 -10 10 -5 0
-10 -4 -10 -10z"/>
<path d="M1540 7879 c0 -5 5 -7 10 -4 6 3 10 8 10 11 0 2 -4 4 -10 4 -5 0 -10
-5 -10 -11z"/>
<path d="M4015 6106 c17 -14 37 -25 45 -25 10 -1 8 4 -6 12 -65 37 -69 39 -39
13z"/>
<path d="M3385 5574 c-167 -39 -294 -114 -421 -246 -80 -83 -127 -159 -153
-248 -8 -25 -20 -65 -28 -90 -37 -115 -41 -394 -8 -550 30 -143 99 -255 236
-384 79 -75 94 -84 149 -101 22 -6 21 -4 -10 21 -235 195 -315 363 -314 659 1
230 50 421 137 536 15 20 27 41 27 47 0 9 20 28 96 90 58 48 166 105 242 127
26 8 96 21 155 30 126 18 281 8 375 -25 140 -49 293 -176 395 -328 72 -107 25
42 -51 163 -107 168 -246 260 -451 299 -102 20 -294 20 -376 0z"/>
<path d="M5695 5546 c-79 -18 -168 -52 -230 -87 -61 -35 -169 -128 -212 -183
-34 -45 -113 -193 -113 -213 0 -23 14 -14 40 26 140 217 340 344 583 370 118
12 298 -9 367 -44 30 -15 83 -38 90 -39 14 -2 82 -55 133 -105 202 -193 267
-515 171 -850 -35 -119 -78 -193 -166 -285 -97 -102 -90 -118 12 -26 19 17 39
35 45 38 6 4 27 27 46 52 18 25 37 47 40 50 14 11 88 159 102 205 32 100 50
253 44 359 -6 90 -32 217 -56 264 -5 9 -19 37 -31 62 -65 129 -170 242 -295
317 -113 67 -215 94 -375 99 -93 3 -154 0 -195 -10z"/>
<path d="M3807 4985 c-27 -15 -29 -35 -4 -35 7 0 18 -9 25 -21 11 -17 10 -26
-5 -57 -15 -31 -24 -37 -55 -40 -27 -2 -40 2 -50 17 -15 21 -15 21 -29 -6 -9
-17 -14 -55 -13 -112 2 -89 27 -167 71 -217 30 -34 86 -56 134 -52 61 4 61 25
0 25 -33 1 -55 7 -69 19 -11 11 -31 28 -45 39 -13 11 -23 23 -21 27 3 4 0 9
-6 13 -5 3 -10 26 -10 51 l0 44 43 -45 c45 -47 59 -51 101 -36 22 9 24 15 24
63 -1 92 46 148 123 148 30 0 31 1 26 34 -8 49 -52 110 -93 130 -53 25 -114
29 -147 11z"/>
<path d="M5488 4960 c-37 -7 -68 -25 -68 -41 0 -5 7 -9 15 -9 17 0 35 -30 35
-60 0 -20 -44 -70 -62 -70 -5 0 -21 12 -35 26 -31 31 -39 23 -48 -47 -13 -93
33 -232 91 -278 29 -23 106 -29 134 -11 11 7 3 10 -31 10 -86 0 -154 85 -127
161 10 29 28 31 28 3 0 -21 51 -63 76 -64 32 0 42 19 46 88 2 34 7 62 12 62 5
0 19 11 31 24 13 14 39 27 63 31 50 8 53 25 22 91 -33 67 -99 98 -182 84z"/>
<path d="M6656 4507 c-27 -92 -30 -107 -13 -77 15 26 42 128 35 135 -2 2 -12
-24 -22 -58z"/>
<path d="M3958 4503 c-10 -2 -18 -8 -18 -13 0 -4 9 -6 20 -3 11 3 20 9 20 14
0 5 -1 8 -2 8 -2 -1 -11 -3 -20 -6z"/>
<path d="M6598 4349 c-9 -16 -13 -29 -7 -29 9 0 33 49 27 56 -2 1 -11 -11 -20
-27z"/>
<path d="M2361 4053 c-29 -20 -26 -37 3 -18 13 8 31 13 40 9 9 -3 16 -2 16 4
0 17 -38 20 -59 5z"/>
<path d="M6766 4005 c-3 -9 -6 -24 -5 -33 0 -9 5 -4 10 12 9 32 6 48 -5 21z"/>
<path d="M2460 4003 c0 -13 82 -114 88 -108 7 6 -33 67 -62 94 -14 14 -26 20
-26 14z"/>
<path d="M6310 3990 c-13 -8 -12 -10 3 -10 9 0 17 5 17 10 0 12 -1 12 -20 0z"/>
<path d="M6235 3950 c-3 -6 1 -7 9 -4 18 7 21 14 7 14 -6 0 -13 -4 -16 -10z"/>
<path d="M6935 3930 c-25 -11 -83 -60 -72 -60 10 0 50 20 57 29 3 3 17 12 31
20 20 10 31 10 48 2 11 -7 21 -8 21 -2 0 20 -50 27 -85 11z"/>
<path d="M3238 3893 c6 -2 18 -2 25 0 6 3 1 5 -13 5 -14 0 -19 -2 -12 -5z"/>
<path d="M3330 3890 c0 -5 15 -10 33 -10 24 0 28 3 17 10 -20 13 -50 13 -50 0z"/>
<path d="M6830 3845 c-7 -8 -9 -15 -6 -15 4 0 14 7 22 15 9 8 11 15 6 15 -5 0
-15 -7 -22 -15z"/>
<path d="M6790 3805 c0 -8 2 -15 4 -15 2 0 6 7 10 15 3 8 1 15 -4 15 -6 0 -10
-7 -10 -15z"/>
<path d="M2666 3792 c-5 -17 -13 -21 -27 -17 -18 6 -18 5 1 -40 13 -30 20 -69
20 -110 0 -85 17 -92 25 -10 9 77 -6 214 -19 177z"/>
<path d="M6700 3788 c0 -3 -14 -50 -31 -104 -32 -104 -42 -235 -20 -257 8 -8
11 -2 11 20 0 17 7 36 15 43 11 9 12 17 4 33 -15 28 -5 118 17 154 10 15 31
45 47 66 16 20 24 37 18 37 -5 0 -14 -7 -19 -16 -8 -14 -11 -14 -26 7 -9 13
-16 21 -16 17z"/>
<path d="M4320 3671 c-61 -4 -3 -8 205 -12 160 -3 292 -4 294 -2 2 2 2 5 -1 8
-8 9 -404 13 -498 6z"/>
<path d="M4175 3660 c-19 -8 -19 -9 2 -9 12 -1 25 4 28 9 7 12 -2 12 -30 0z"/>
<path d="M3818 3653 c18 -2 45 -2 60 0 15 2 0 4 -33 4 -33 0 -45 -2 -27 -4z"/>
<path d="M3928 3653 c7 -3 16 -2 19 1 4 3 -2 6 -13 5 -11 0 -14 -3 -6 -6z"/>
<path d="M4048 3653 c7 -3 16 -2 19 1 4 3 -2 6 -13 5 -11 0 -14 -3 -6 -6z"/>
<path d="M4108 3653 c7 -3 16 -2 19 1 4 3 -2 6 -13 5 -11 0 -14 -3 -6 -6z"/>
<path d="M4903 3653 c37 -2 97 -2 135 0 37 2 6 3 -68 3 -74 0 -105 -1 -67 -3z"/>
<path d="M3565 3636 c-101 -21 -115 -26 -115 -42 0 -20 194 -209 366 -358 48
-41 54 -43 54 -17 0 11 14 28 33 40 19 11 45 31 59 44 71 66 55 64 488 71 217
3 514 6 659 7 268 0 416 10 435 29 5 5 17 10 26 10 18 0 100 -57 100 -69 0
-11 -47 -61 -57 -61 -5 0 -29 -21 -53 -46 l-45 -46 37 25 c110 73 338 297 338
332 0 17 -107 43 -233 56 -161 17 -268 25 -274 19 -2 -3 50 -10 116 -16 116
-11 152 -23 151 -48 -1 -6 -27 -39 -58 -74 l-57 -62 -105 -10 c-123 -11 -1420
-12 -1528 -1 l-74 7 -84 87 c-46 47 -84 93 -84 101 0 15 13 20 70 29 14 3 -4
4 -40 4 -36 1 -92 -5 -125 -11z"/>
<path d="M5240 3646 c0 -2 11 -6 25 -8 13 -3 22 -1 19 3 -5 9 -44 13 -44 5z"/>
<path d="M6933 3585 c0 -22 2 -30 4 -17 2 12 2 30 0 40 -3 9 -5 -1 -4 -23z"/>
<path d="M3880 3193 c0 -11 45 -52 100 -94 19 -15 48 -39 63 -53 16 -15 41
-34 55 -44 15 -9 35 -27 44 -38 24 -29 217 -156 231 -151 6 2 -25 29 -69 59
-100 72 -168 121 -174 128 -3 3 -50 42 -105 85 -55 44 -102 82 -105 85 -17 18
-40 31 -40 23z"/>
<path d="M5464 3168 c-16 -13 -38 -31 -49 -41 -11 -11 -31 -26 -45 -35 -14 -9
-32 -22 -40 -29 -23 -19 -131 -106 -165 -131 -16 -13 -52 -39 -78 -59 -26 -19
-46 -38 -43 -40 9 -9 212 131 284 196 12 12 25 21 27 21 2 0 19 13 37 29 18
17 51 46 73 65 45 39 44 59 -1 24z"/>
<path d="M5182 2443 c-10 -4 -7 -9 10 -17 22 -12 37 -5 38 17 0 8 -28 8 -48 0z"/>
<path d="M4180 2430 c0 -5 5 -10 10 -10 6 0 10 5 10 10 0 6 -4 10 -10 10 -5 0
-10 -4 -10 -10z"/>
<path d="M5005 2400 c-18 -8 -18 -9 5 -8 14 0 36 4 50 8 24 8 24 8 -5 8 -16 0
-39 -3 -50 -8z"/>
<path d="M4815 2344 c-64 -33 -148 -85 -157 -99 -12 -17 8 -17 47 -1 43 18 45
19 45 8 0 -5 -17 -18 -39 -30 -37 -21 -78 -68 -68 -79 10 -9 64 7 83 25 43 39
100 80 122 86 39 13 24 -11 -30 -45 -119 -75 -177 -139 -111 -123 26 7 155 91
161 106 2 4 8 8 14 8 16 0 60 50 55 64 -2 6 -11 10 -21 8 -23 -4 -20 15 4 28
11 6 20 20 20 30 0 13 -7 20 -20 20 -11 0 -20 5 -20 10 0 17 -33 11 -85 -16z"/>
<path d="M5154 2308 c-3 -13 -17 -46 -30 -73 -21 -45 -54 -132 -54 -141 0 -2
7 -4 15 -4 15 0 55 77 55 106 0 7 9 28 20 46 21 34 27 88 11 88 -5 0 -13 -10
-17 -22z"/>
<path d="M4185 2301 c-6 -5 -24 -11 -42 -13 -30 -3 -31 -4 -17 -23 13 -17 17
-18 35 -6 29 17 37 6 51 -67 8 -41 16 -62 25 -62 8 0 12 4 9 9 -3 5 -8 24 -11
42 -3 19 -9 54 -13 78 -7 45 -20 59 -37 42z"/>
<path d="M5225 2280 c-17 -6 -12 -12 35 -43 31 -19 62 -42 69 -50 7 -9 32 -26
56 -37 56 -27 64 -51 31 -93 -35 -43 -38 -46 -66 -87 -26 -37 -157 -200 -191
-237 -11 -12 -40 -48 -65 -80 -124 -162 -380 -409 -476 -460 -84 -45 -113 -29
-279 155 -177 196 -239 278 -347 462 -18 30 -37 62 -42 70 -80 135 -81 139
-51 169 19 19 19 19 -14 18 -31 -2 -33 -4 -28 -27 6 -25 45 -111 63 -140 5 -8
26 -49 46 -90 58 -122 182 -313 249 -385 67 -73 115 -132 109 -137 -2 -3 7
-13 22 -22 17 -12 24 -24 21 -36 -3 -13 0 -16 13 -13 10 3 20 -2 23 -12 5 -11
2 -15 -10 -13 -9 2 -18 -2 -20 -8 -5 -14 29 -13 39 1 5 6 16 1 30 -12 17 -18
20 -25 10 -35 -6 -6 -15 -8 -19 -4 -4 4 -1 12 7 17 11 8 8 8 -10 3 -14 -4 -28
-12 -32 -18 -6 -8 -10 -7 -16 2 -10 16 -42 5 -42 -14 0 -8 5 -14 10 -14 6 0
10 5 10 10 0 6 5 10 10 10 6 0 10 -9 10 -20 0 -25 -35 -27 -45 -2 -7 16 -8 15
-16 -3 -7 -15 -8 -12 -5 15 3 19 2 29 -1 23 -2 -7 -11 -13 -19 -13 -9 0 -13
-5 -9 -12 4 -7 -1 -4 -9 7 -9 11 -14 25 -12 31 8 21 -21 39 -39 24 -13 -10
-15 -9 -15 9 0 12 -4 19 -10 16 -6 -4 -8 7 -5 27 3 18 2 27 -1 20 -9 -20 -33
5 -27 29 4 15 2 18 -11 13 -11 -4 -19 3 -28 23 -22 50 -78 121 -99 126 -20 5
-21 3 -15 -31 3 -20 6 -57 7 -82 2 -45 2 -45 9 -10 l6 35 8 -27 c5 -16 12 -28
16 -28 4 0 10 -9 13 -20 3 -11 1 -20 -4 -20 -12 0 -12 -37 0 -45 5 -3 12 5 14
17 2 13 5 4 7 -22 2 -27 4 -36 7 -22 4 22 5 23 18 5 16 -21 20 -53 6 -53 -5 0
-12 6 -14 13 -3 7 -6 4 -6 -7 -1 -14 4 -17 23 -14 26 5 29 -9 6 -34 -13 -13
-16 -13 -32 6 -13 16 -17 17 -18 6 0 -13 -2 -13 -9 -1 -7 10 -4 19 7 27 13 10
14 15 5 25 -9 9 -20 7 -47 -9 -20 -12 -36 -17 -36 -12 0 6 -67 10 -170 10
-107 0 -170 -4 -170 -10 0 -5 5 -10 10 -10 6 0 10 -18 10 -40 l0 -40 -50 0
-50 0 0 -40 c0 -40 0 -40 -39 -40 -22 0 -44 6 -51 15 -16 20 -56 19 -64 -1
-12 -32 -6 -54 14 -54 11 0 20 5 20 10 0 6 5 10 10 10 6 0 10 -11 10 -25 0
-15 -6 -25 -14 -25 -8 0 -21 -3 -30 -6 -11 -4 -16 0 -16 12 0 17 -1 17 -13 -1
-10 -12 -16 -14 -21 -7 -10 17 -49 15 -43 -2 3 -7 -16 -34 -43 -61 -33 -32
-50 -59 -53 -79 -3 -29 -4 -28 -5 7 -1 20 -6 37 -11 37 -5 0 -8 6 -8 13 1 6
-2 30 -7 52 -4 22 -14 74 -22 115 -9 41 -19 79 -25 85 -5 5 -9 17 -9 27 0 21
-35 25 -43 4 -3 -7 -1 -32 4 -55 5 -23 7 -46 4 -51 -3 -5 -1 -19 6 -31 13 -25
42 -216 34 -228 -2 -5 -5 -31 -6 -60 -3 -67 -19 -66 -19 2 0 28 -4 58 -9 66
-5 8 -7 -8 -6 -40 5 -86 -1 -99 -45 -99 -54 0 -64 -17 -57 -100 5 -55 2 -76
-13 -107 -10 -21 -15 -42 -11 -46 5 -5 30 -10 56 -12 26 -2 50 -7 54 -10 3 -4
-3 -5 -13 -3 -10 1 -21 -2 -23 -8 -5 -15 39 -26 51 -14 14 14 26 12 20 -4 -3
-7 -17 -12 -32 -11 -15 1 -37 3 -49 3 -14 1 -23 9 -23 18 0 15 -9 16 -61 10
-34 -3 -67 -10 -73 -15 -6 -4 -29 -12 -51 -15 -60 -11 -118 -42 -169 -93 -32
-32 -63 -36 -192 -28 l-115 7 -22 32 c-23 33 -142 170 -188 216 -141 140 -258
240 -281 240 -10 0 15 -46 36 -65 61 -56 84 -122 46 -132 -23 -6 -26 -26 -7
-42 11 -8 13 -36 10 -113 -3 -108 7 -147 36 -143 9 1 10 0 4 -2 -7 -3 -13 -15
-13 -28 0 -13 -7 -31 -16 -39 -14 -15 -12 -16 28 -16 47 0 78 13 59 24 -16 10
-14 29 6 52 24 27 42 55 49 77 4 9 9 17 13 17 4 0 15 16 25 35 11 19 24 35 30
35 20 0 141 -156 128 -164 -4 -2 -46 -11 -92 -19 -82 -15 -147 -34 -139 -41 2
-2 46 2 97 10 229 31 477 26 550 -12 15 -8 31 -14 36 -14 5 0 25 -12 45 -26
l36 -26 -30 28 c-16 16 -54 41 -82 54 -30 14 -53 31 -53 40 1 15 81 61 154 86
92 33 236 12 349 -51 51 -29 116 -101 136 -152 l13 -33 1280 0 1280 0 60 55
c67 63 92 72 145 55 49 -16 71 -36 81 -74 13 -49 51 -47 104 4 64 62 102 83
218 117 157 47 213 56 340 56 161 0 423 -57 540 -117 72 -37 124 -67 141 -82
10 -9 40 -14 86 -14 l71 0 4 54 c5 60 34 112 77 140 l26 16 -25 -3 c-14 -1
-30 -6 -37 -10 -15 -9 -26 8 -19 31 3 9 1 24 -4 32 -8 12 -13 13 -30 3 -26
-17 -30 -16 -30 4 0 25 41 81 65 88 13 4 15 8 8 12 -7 2 -13 11 -13 19 0 8 -5
14 -11 14 -5 0 -7 5 -3 11 3 6 -7 25 -23 42 -17 18 -33 40 -36 49 -3 9 -16 18
-29 20 -29 4 -34 29 -14 70 19 38 17 42 -17 29 -21 -8 -28 -7 -36 6 -13 25
-42 -1 -37 -33 3 -12 -2 -28 -10 -35 -17 -14 -45 -5 -40 13 18 57 16 68 -9 78
-29 11 -42 38 -51 112 -9 72 -19 88 -54 88 -28 0 -41 14 -22 22 5 2 12 15 16
31 5 20 3 27 -9 27 -8 0 -17 -11 -21 -25 -9 -37 -83 -69 -146 -63 -40 4 -57
12 -89 44 -32 31 -39 45 -40 79 -1 55 -13 93 -23 77 -4 -7 -12 -10 -17 -6 -6
3 -19 -3 -30 -15 -11 -12 -26 -21 -34 -21 -8 0 -15 -13 -17 -32 l-3 -33 -85
-8 c-47 -4 -125 -14 -175 -22 -49 -8 -110 -17 -135 -19 -71 -5 -143 -28 -170
-53 -27 -25 -50 -30 -50 -10 -1 6 -7 1 -14 -12 -10 -18 -15 -20 -21 -11 -7 11
-10 9 -16 -6 -7 -17 -8 -17 -8 -1 -1 9 -8 17 -16 17 -11 0 -15 11 -15 40 0 28
-4 40 -14 40 -16 0 -26 21 -26 56 0 23 -3 24 -64 24 -57 0 -65 3 -80 25 -9 13
-16 31 -16 40 0 11 -12 15 -50 15 -41 0 -50 3 -50 18 -1 9 -7 28 -14 41 l-13
24 -13 -23 c-12 -22 -13 -22 -23 -4 -6 10 -13 30 -14 44 -6 45 -11 51 -38 44
-14 -3 -31 -2 -38 4 -6 6 -28 12 -47 14 -34 3 -35 5 -45 58 -6 30 -14 50 -18
44 -4 -7 -28 -9 -63 -6 l-56 5 3 -52 c2 -28 1 -51 -3 -51 -5 0 -8 18 -8 40 0
39 -1 40 -35 40 -19 0 -35 5 -35 11 0 5 -3 8 -8 5 -4 -2 -7 -25 -6 -50 1 -39
-1 -45 -12 -35 -8 7 -12 20 -9 30 4 11 2 19 -4 19 -6 0 -11 -6 -11 -12 -1 -7
-7 -2 -15 12 -8 14 -14 20 -15 13 0 -6 -9 -9 -21 -6 -12 3 -24 0 -29 -6 -5
-10 -10 -9 -21 1 -18 18 -52 32 -44 18 3 -6 -4 -10 -17 -10 -19 0 -20 2 -8 11
12 8 10 9 -10 5 -14 -3 -40 -6 -57 -6 -33 0 -33 0 -33 -49 0 -47 -1 -49 -30
-53 -17 -3 -33 -1 -36 3 -2 5 -11 6 -18 3 -8 -3 -17 -1 -21 5 -4 7 11 11 44
11 57 0 56 -1 39 35 -14 30 -24 32 -33 5 -6 -18 -14 -21 -61 -19 -45 2 -59 -2
-77 -19 l-21 -22 24 0 c45 -1 -1 -18 -75 -28 -45 -6 -74 -6 -82 0 -7 5 -22 7
-35 3 -21 -6 -22 -5 -5 8 9 8 17 20 17 28 -1 9 -8 6 -20 -9 -18 -22 -18 -58 0
-47 5 3 11 1 15 -5 10 -16 -21 -12 -35 4 -6 8 -18 12 -27 9 -12 -5 -12 -7 -1
-14 8 -6 -2 -9 -27 -8 -34 0 -37 2 -17 9 12 5 22 14 22 20 0 5 7 10 15 10 8 0
15 5 15 10 0 6 4 10 9 10 5 0 23 14 41 30 18 17 37 30 44 30 6 0 20 13 29 30
23 38 151 170 166 170 6 0 11 6 11 14 0 8 11 23 25 34 14 11 25 23 25 27 0 4
15 24 33 45 17 20 46 55 64 76 18 21 62 74 98 116 36 42 65 81 65 85 0 5 17
29 38 55 20 25 62 83 92 128 30 45 65 94 78 110 28 36 13 48 -18 15 -30 -31
-34 -31 -79 4 -20 15 -50 36 -68 45 -18 9 -47 31 -65 50 -25 25 -38 32 -53 26z
m53 -1032 c-3 -7 -13 -15 -24 -17 -10 -2 -22 -9 -27 -17 -4 -7 -21 -22 -37
-34 l-30 -21 0 26 c0 24 3 27 25 23 13 -3 22 -2 20 3 -3 4 -1 10 5 14 6 4 8
11 5 16 -3 5 0 6 8 3 8 -3 18 -1 22 5 9 15 38 14 33 -1z m112 -23 c0 -8 -7
-15 -16 -15 -14 0 -14 3 -4 15 7 8 14 15 16 15 2 0 4 -7 4 -15z m-240 -24 c0
-6 -4 -13 -10 -16 -5 -3 -10 1 -10 9 0 9 5 16 10 16 6 0 10 -4 10 -9z m197
-26 c-1 -19 -6 -35 -12 -35 -7 0 -10 -15 -8 -39 3 -38 -16 -69 -25 -42 -3 9
-8 9 -20 -1 -14 -11 -14 -11 -5 6 13 23 5 56 -13 56 -22 0 -16 15 14 38 46 35
67 51 69 52 0 0 1 -16 0 -35z m-267 -19 c0 -8 -5 -18 -12 -22 -7 -4 -8 -3 -4
4 4 7 2 12 -4 12 -6 0 -8 5 -5 10 9 15 25 12 25 -4z m60 -3 c0 -7 -9 -13 -20
-13 -12 0 -17 5 -14 13 3 8 11 14 19 14 8 0 15 -6 15 -14z m555 -13 c3 -5 1
-10 -4 -10 -6 0 -11 5 -11 10 0 6 2 10 4 10 3 0 8 -4 11 -10z m-1187 -18 c5
-17 -13 -15 -27 2 -10 12 -9 14 5 12 10 -2 20 -8 22 -14z m-736 -59 c8 -10 6
-13 -6 -13 -12 0 -16 9 -15 43 2 34 3 36 6 12 3 -16 9 -36 15 -42z m112 52
c-4 -8 -14 -15 -24 -15 -10 0 -23 7 -30 15 -11 13 -7 15 23 15 28 0 35 -3 31
-15z m744 -2 c-10 -2 -26 -2 -35 0 -10 3 -2 5 17 5 19 0 27 -2 18 -5z m582
-32 c-6 -12 -15 -21 -20 -21 -14 0 -12 7 7 30 21 24 29 19 13 -9z m-902 -41
c14 0 15 -2 3 -9 -19 -12 -41 15 -40 49 1 22 2 21 10 -7 6 -21 16 -33 27 -33z
m-11 38 c-3 -8 -6 -5 -6 6 -1 11 2 17 5 13 3 -3 4 -12 1 -19z m308 12 c3 -5 2
-10 -4 -10 -5 0 -13 5 -16 10 -3 6 -2 10 4 10 5 0 13 -4 16 -10z m415 -10 c0
-5 -2 -10 -4 -10 -3 0 -8 5 -11 10 -3 6 -1 10 4 10 6 0 11 -4 11 -10z m230
-11 c-7 -11 -14 -18 -17 -15 -8 8 5 36 17 36 7 0 7 -6 0 -21z m-900 -9 c0 -5
-7 -10 -15 -10 -8 0 -15 5 -15 10 0 6 7 10 15 10 8 0 15 -4 15 -10z m1425 0
c3 -5 1 -10 -4 -10 -6 0 -11 5 -11 10 0 6 2 10 4 10 3 0 8 -4 11 -10z m-1415
-24 c0 -3 -4 -8 -10 -11 -5 -3 -10 -1 -10 4 0 6 5 11 10 11 6 0 10 -2 10 -4z
m546 -33 c-10 -10 -19 5 -10 18 6 11 8 11 12 0 2 -7 1 -15 -2 -18z m2087 -27
c3 -8 0 -22 -7 -31 -11 -16 -14 -16 -29 -1 -9 9 -14 23 -11 31 8 19 40 19 47
1z m-996 -28 c-3 -8 -6 -5 -6 6 -1 11 2 17 5 13 3 -3 4 -12 1 -19z m127 -73
c-4 -8 -16 -15 -29 -15 -13 0 -25 7 -29 15 -4 12 3 15 29 15 26 0 33 -3 29
-15z m694 -6 c4 -21 -40 -83 -61 -87 -19 -4 -24 27 -6 45 8 8 8 13 0 17 -6 4
-15 -3 -20 -17 -11 -29 -31 -44 -31 -24 0 22 39 67 54 61 7 -3 19 2 26 11 15
18 34 15 38 -6z m60 4 c-24 -49 -33 -63 -46 -68 -23 -9 -24 0 -5 39 11 21 25
36 36 36 10 0 17 -3 15 -7z m-3501 -75 c-2 -13 -4 -5 -4 17 -1 22 1 32 4 23 2
-10 2 -28 0 -40z m3673 27 c0 -30 -20 -33 -37 -6 -13 22 -8 31 19 31 13 0 18
-7 18 -25z m-450 1 c0 -8 -4 -18 -10 -21 -15 -9 -12 -21 14 -52 16 -19 22 -34
16 -43 -6 -10 -21 -2 -61 34 -58 52 -67 53 -143 16 -38 -19 -56 -18 -56 0 0
10 43 36 105 61 52 22 135 25 135 5z m730 -16 c16 -12 21 -23 15 -38 -7 -25
-26 -28 -56 -9 -17 10 -23 10 -26 0 -3 -7 -14 -13 -25 -13 -15 0 -18 4 -12 23
16 54 60 70 104 37z m-4000 -10 c-20 -13 -50 -13 -50 0 0 6 15 10 33 10 24 0
28 -3 17 -10z m3849 -51 c29 -9 41 -17 39 -28 -5 -22 -33 -25 -110 -11 -80 15
-93 22 -84 45 5 15 15 17 60 12 29 -3 72 -11 95 -18z m-907 -4 c9 -4 13 -18
12 -36 -3 -44 -9 -44 -21 1 -5 22 -9 40 -7 40 1 0 9 -2 16 -5z m488 -35 c0 -5
-2 -10 -4 -10 -3 0 -8 5 -11 10 -3 6 -1 10 4 10 6 0 11 -4 11 -10z m-513 -72
c-3 -8 -6 -5 -6 6 -1 11 2 17 5 13 3 -3 4 -12 1 -19z m28 13 c3 -5 1 -12 -5
-16 -5 -3 -10 1 -10 9 0 18 6 21 15 7z m139 -65 c37 -15 76 -50 76 -66 0 -16
-18 -12 -58 13 -20 13 -54 29 -74 36 -21 7 -38 17 -38 22 0 14 56 11 94 -5z
m-3229 -6 c3 -5 1 -10 -4 -10 -6 0 -11 5 -11 10 0 6 2 10 4 10 3 0 8 -4 11
-10z m3653 -34 c2 -9 -5 -37 -17 -60 -29 -63 -61 -161 -61 -190 0 -34 -31 -69
-50 -56 -12 7 -14 27 -12 84 l2 75 -55 41 c-51 38 -69 70 -46 84 4 3 29 -8 55
-24 26 -17 53 -30 60 -30 8 0 33 23 56 50 43 51 62 58 68 26z m-3781 -8 c-3
-8 -6 -5 -6 6 -1 11 2 17 5 13 3 -3 4 -12 1 -19z m3129 -45 c-11 -11 -19 6
-11 24 8 17 8 17 12 0 3 -10 2 -21 -1 -24z m-27 -37 c-6 -6 -13 -6 -21 2 -9 9
-9 12 1 12 8 0 10 8 6 23 -5 20 -5 20 9 -3 9 -15 11 -29 5 -34z m-3059 -3 c0
-43 -5 -41 -13 5 -4 18 -2 32 3 32 6 0 10 -16 10 -37z m4024 12 c11 -8 16 -18
13 -22 -4 -4 -13 -1 -19 5 -7 7 -33 12 -58 12 -39 0 -53 -6 -89 -37 -24 -20
-47 -46 -51 -57 -7 -18 -9 -18 -9 -3 -2 33 29 76 67 96 44 24 119 26 146 6z
m279 -2 c8 -10 19 -30 22 -45 9 -34 21 -34 85 -7 48 21 80 20 80 0 0 -17 -49
-57 -88 -70 -54 -20 -70 -38 -77 -90 -10 -69 -25 -110 -44 -121 -35 -18 -40 5
-34 159 7 185 17 216 56 174z m-1088 -47 c55 -23 91 -112 71 -176 -11 -36 -64
-116 -103 -158 l-33 -35 -19 22 c-10 11 -21 21 -25 21 -4 0 -22 11 -40 25 -18
14 -46 25 -62 25 -44 0 -74 11 -74 26 0 28 64 140 107 189 63 70 114 87 178
61z m891 -43 c20 -47 8 -173 -16 -173 -4 0 -7 47 -6 105 0 58 2 105 4 105 2 0
10 -17 18 -37z m-4169 -15 c-3 -8 -6 -5 -6 6 -1 11 2 17 5 13 3 -3 4 -12 1
-19z m43 7 c0 -8 -4 -15 -10 -15 -5 0 -7 7 -4 15 4 8 8 15 10 15 2 0 4 -7 4
-15z m53 -15 c-3 -12 0 -20 8 -20 7 0 9 -3 6 -7 -4 -3 -17 4 -28 16 -17 18
-19 25 -8 31 19 12 28 3 22 -20z m87 -10 c0 -5 -5 -10 -11 -10 -5 0 -7 5 -4
10 3 6 8 10 11 10 2 0 4 -4 4 -10z m2880 6 c0 -3 -4 -8 -10 -11 -5 -3 -10 -1
-10 4 0 6 5 11 10 11 6 0 10 -2 10 -4z m-2873 -58 c-3 -8 -6 -5 -6 6 -1 11 2
17 5 13 3 -3 4 -12 1 -19z m-27 -2 c0 -2 -7 -6 -15 -10 -8 -3 -15 -1 -15 4 0
6 7 10 15 10 8 0 15 -2 15 -4z"/>
<path d="M5268 1133 c7 -3 16 -2 19 1 4 3 -2 6 -13 5 -11 0 -14 -3 -6 -6z"/>
<path d="M4882 2158 c-7 -7 -12 -9 -12 -4 0 4 -6 1 -14 -6 -22 -22 -61 -52
-81 -64 -24 -13 -41 -41 -32 -50 4 -4 19 -2 34 5 45 20 153 104 153 118 0 16
-32 17 -48 1z"/>
<path d="M3986 2129 c-11 -11 -15 -19 -9 -19 12 0 38 28 32 34 -2 2 -13 -5
-23 -15z"/>
<path d="M3945 2100 c-3 -5 -1 -10 4 -10 6 0 11 5 11 10 0 6 -2 10 -4 10 -3 0
-8 -4 -11 -10z"/>
<path d="M5200 1440 c0 -5 5 -10 10 -10 6 0 10 5 10 10 0 6 -4 10 -10 10 -5 0
-10 -4 -10 -10z"/>
<path d="M5360 1440 c0 -5 7 -10 15 -10 8 0 15 5 15 10 0 6 -7 10 -15 10 -8 0
-15 -4 -15 -10z"/>
<path d="M5191 1384 c0 -11 3 -14 6 -6 3 7 2 16 -1 19 -3 4 -6 -2 -5 -13z"/>
<path d="M5354 1355 c-1 -27 1 -41 4 -30 2 11 9 26 14 33 7 8 7 12 0 12 -6 0
-12 8 -14 18 -2 9 -4 -5 -4 -33z"/>
<path d="M4768 1218 c-7 -16 7 -46 17 -37 3 4 2 16 -3 29 -7 18 -10 20 -14 8z"/>
<path d="M6960 1121 c0 -13 12 -20 26 -14 20 8 17 19 -6 20 -11 1 -20 -2 -20
-6z"/>
<path d="M7064 985 c3 -9 6 -19 6 -21 0 -2 7 -4 16 -4 22 0 13 34 -10 38 -14
3 -17 0 -12 -13z"/>
<path d="M6253 893 c-15 -6 -17 -33 -3 -33 6 0 10 6 10 14 0 8 6 17 13 19 6 3
8 5 2 5 -5 0 -16 -2 -22 -5z"/>
<path d="M3252 830 c0 -14 2 -19 5 -12 2 6 2 18 0 25 -3 6 -5 1 -5 -13z"/>
<path d="M3020 660 c0 -5 5 -10 10 -10 6 0 10 5 10 10 0 6 -4 10 -10 10 -5 0
-10 -4 -10 -10z"/>
<path d="M2960 639 c0 -5 5 -7 10 -4 6 3 10 8 10 11 0 2 -4 4 -10 4 -5 0 -10
-5 -10 -11z"/>
<path d="M2858 323 c7 -3 16 -2 19 1 4 3 -2 6 -13 5 -11 0 -14 -3 -6 -6z"/>
<path d="M6090 10 c-12 -8 -10 -10 8 -10 13 0 20 4 17 10 -7 12 -6 12 -25 0z"/>
</g>
</svg>
